<svg xmlns="http://www.w3.org/2000/svg" width="132" height="37" viewBox="0 0 132 37" fill="none">
                                    <path d="M131.999 26.4171C132.01 26.648 131.956 26.8789 131.834 27.0785C131.686 27.282 131.439 27.3877 131.189 27.3525H127.709C127.616 27.3525 127.561 27.4464 127.529 27.5599V35.1092C127.529 35.7276 127.252 36.0328 126.727 36.0328H124.434C123.886 36.0328 123.624 35.7276 123.624 35.1092V27.5599C123.635 27.4581 123.565 27.3642 123.463 27.3525C123.448 27.3525 123.432 27.3525 123.416 27.3525H119.953C119.405 27.3525 119.143 27.0472 119.143 26.4171V24.9339C119.143 24.3312 119.409 24.0376 119.953 24.0376H131.189C131.737 24.0376 131.999 24.3312 131.999 24.9339V26.4171ZM118.059 35.1092C118.059 35.7276 117.781 36.0328 117.233 36.0328H106.866C106.318 36.0328 106.056 35.7276 106.056 35.1092V24.9339C106.056 24.3312 106.318 24.0376 106.866 24.0376H117.233C117.444 24.0376 117.648 24.1159 117.808 24.2568C117.984 24.4368 118.078 24.6834 118.059 24.9339V26.4171C118.059 27.0472 117.781 27.3525 117.233 27.3525H110.169C110.071 27.3368 109.977 27.4033 109.961 27.5012C109.961 27.5207 109.961 27.5403 109.961 27.5599V28.1078C109.989 28.2134 110.067 28.3035 110.169 28.3426H117.233C117.781 28.3426 118.059 28.6479 118.059 29.2662V30.7495C118.059 31.3678 117.781 31.6613 117.233 31.6613H110.169C110.02 31.6613 109.961 31.7474 109.961 31.8922V32.4949C109.993 32.6006 110.067 32.6867 110.169 32.7297H117.233C117.781 32.7297 118.059 33.0428 118.059 33.6612V35.1092ZM104.529 35.1092C104.529 35.7276 104.279 36.0328 103.754 36.0328H99.0228C98.6549 36.0015 98.334 35.7706 98.1853 35.4301L93.7668 27.9512V35.1053C93.7668 35.7236 93.5007 36.0289 92.9567 36.0289H90.812C90.2641 36.0289 90.0019 35.7236 90.0019 35.1053V24.9299C90.0019 24.3272 90.2681 24.0337 90.812 24.0337H95.5553C95.9036 24.0572 96.2128 24.2646 96.3654 24.5816L100.831 32.1036V24.9299C100.831 24.3272 101.093 24.0337 101.606 24.0337H103.793C104.341 24.0337 104.568 24.3272 104.568 24.9299L104.529 35.1053V35.1092ZM88.5148 33.5673C88.5343 34.1817 88.3426 34.7844 87.9669 35.2736C87.6029 35.7745 87.0119 36.0602 86.3897 36.0328H77.4549C76.8327 36.0563 76.2378 35.7706 75.8699 35.2736C75.4864 34.7883 75.2946 34.1817 75.322 33.5673V26.4562C75.3064 25.834 75.5099 25.2235 75.8973 24.7382C76.273 24.2607 76.8601 23.9946 77.4667 24.022H86.3936C86.9924 23.9985 87.5677 24.2646 87.9356 24.7382C88.3308 25.2235 88.5382 25.8301 88.5226 26.4562L88.5109 33.5673H88.5148ZM84.609 32.4088V27.6342C84.6051 27.4933 84.4994 27.3799 84.3624 27.3564H79.4391C79.3256 27.3564 79.2474 27.4503 79.2043 27.6342V32.5575C79.2043 32.6436 79.31 32.7063 79.4391 32.718H84.3624C84.5229 32.718 84.609 32.6202 84.609 32.4127V32.4088ZM73.9914 33.5673C74.0149 34.1817 73.8192 34.7844 73.4435 35.2736C73.0756 35.7706 72.4886 36.0563 71.8741 36.0328H62.9472C62.321 36.0602 61.7223 35.7745 61.3505 35.2736C60.9748 34.7883 60.7791 34.1817 60.8026 33.5673V26.4562C60.783 25.8301 60.9943 25.2195 61.3935 24.7382C61.7692 24.2607 62.3563 23.9907 62.9629 24.022H71.8976C72.4964 23.9985 73.0678 24.2646 73.4357 24.7382C73.8192 25.2274 74.0227 25.834 74.011 26.4562V27.102C74.011 27.826 73.7057 28.1978 73.0717 28.1978H70.9858L70.6022 28.1195C70.4222 28.0373 70.2813 27.8925 70.2069 27.7086C70.1639 27.5403 70.023 27.419 69.8508 27.4033H64.9275C64.7631 27.4033 64.6927 27.5012 64.6927 27.7086V32.354C64.6927 32.5301 64.7905 32.6162 64.9275 32.6162H69.8508C69.9839 32.6162 70.0856 32.5106 70.1796 32.2758C70.2226 32.0253 70.4105 31.8218 70.6609 31.7631C70.7666 31.7513 70.8762 31.7513 70.9818 31.7631H73.0678C73.7018 31.7631 74.0071 32.1192 74.0071 32.8237L73.9914 33.5673ZM59.3624 35.1092C59.3624 35.7276 59.0845 36.0328 58.5249 36.0328H48.1695C47.6216 36.0328 47.3672 35.7276 47.3672 35.1092V24.9339C47.3672 24.3312 47.6294 24.0376 48.1695 24.0376H58.5366C58.7518 24.0376 58.9593 24.1159 59.1236 24.2568C59.3037 24.4329 59.3937 24.6834 59.3741 24.9339V26.4171C59.3741 27.0472 59.0962 27.3525 58.5366 27.3525H51.4647C51.3591 27.3446 51.2651 27.419 51.2573 27.5247C51.2573 27.5364 51.2573 27.5481 51.2573 27.5599V28.1078C51.2847 28.2134 51.363 28.3035 51.4647 28.3426H58.5366C59.0845 28.3426 59.3741 28.6479 59.3741 29.2662V30.7495C59.3741 31.3678 59.0962 31.6613 58.5366 31.6613H51.4647C51.3512 31.6574 51.2573 31.7435 51.2534 31.857C51.2534 31.8688 51.2534 31.8805 51.2534 31.8922V32.4949C51.2847 32.6006 51.3591 32.6867 51.4608 32.7297H58.5327C59.0806 32.7297 59.3702 33.0428 59.3702 33.6612L59.3585 35.1092H59.3624Z" fill="#fff"></path>
                                    <path fill-rule="evenodd" clip-rule="evenodd" d="M50.5955 8.57072C50.118 8.95425 49.7189 9.41997 49.4097 9.9483C48.9596 10.0344 48.533 10.2223 48.1612 10.4962L48.1025 10.4101C48.3021 10.1127 48.4352 9.77611 48.4978 9.42388L48.5409 9.11079C49.0653 8.77422 49.5193 8.34373 49.8793 7.83496L50.5955 8.5668V8.57072Z" fill="#fff"></path>
                                    <path fill-rule="evenodd" clip-rule="evenodd" d="M58.204 0.140959L58.2157 0.129218C57.2803 -0.723947 53.9968 2.83351 51.8091 5.34213C51.0068 6.26574 50.2711 7.11891 49.9619 7.44373L51.0929 8.53954C52.1888 7.42417 59.4837 1.3033 58.204 0.140959ZM57.2451 1.5342L54.5878 4.26981L54.1612 4.3833L54.2669 3.95672L56.9242 1.22111C57.0729 1.0724 57.2647 1.0176 57.3508 1.10762C57.4212 1.17806 57.3938 1.38548 57.2451 1.5342Z" fill="#fff"></path>
                                    <path fill-rule="evenodd" clip-rule="evenodd" d="M31.8844 3.51434V27.9587H8.14844V1.08008H29.0079L31.8844 3.51434Z" fill="#92CADE"></path>
                                    <path fill-rule="evenodd" clip-rule="evenodd" d="M29.0078 1.08008L31.8843 3.51434H29.0078V1.08008Z" fill="#077599"></path>
                                    <path fill-rule="evenodd" clip-rule="evenodd" d="M36.1735 7.46746V31.9079H12.4219V5.0332H33.2892L36.1735 7.46746Z" fill="#1B87C5"></path>
                                    <path fill-rule="evenodd" clip-rule="evenodd" d="M40.4636 11.4196V35.8757H16.708V8.98145H37.5792L40.4636 11.4196Z" fill="#34B5C7"></path>
                                    <path d="M28.6794 30.2175C27.9202 30.7537 26.9144 30.785 26.1239 30.2958L17.917 23.2983C17.6509 23.0791 16.8212 22.3747 16.5786 22.5664C12.0858 26.5935 7.27989 30.1471 2.80273 34.1703C1.6717 34.8473 -0.398592 33.368 0.0671259 32.3661C4.99043 27.6932 10.039 24.2297 14.9819 19.5764C15.5689 18.9581 17.1696 18.3671 17.9758 19.1186L27.1884 27.2158L27.2314 27.2588C27.2784 27.3175 27.3606 27.3332 27.4232 27.2862C27.4349 27.2784 27.4427 27.2706 27.4506 27.2588C33.4306 22.0733 38.9409 16.563 44.9131 11.3657C46.1928 10.9235 47.4999 11.7336 47.3356 13.2051C41.1364 18.8916 34.9177 24.5702 28.6794 30.241V30.2253V30.2175Z" fill="#fff"></path>
                                    <path fill-rule="evenodd" clip-rule="evenodd" d="M33.2891 5.0332L36.1734 7.46746H33.2812L33.2891 5.0332Z" fill="#0F5E89"></path>
                                    <path fill-rule="evenodd" clip-rule="evenodd" d="M37.5791 8.98145L40.4634 11.4196H37.5713L37.5791 8.98145Z" fill="#0A7680"></path>
                                </svg>