<svg xmlns="http://www.w3.org/2000/svg" width="60" height="37" viewBox="0 0 60 37" fill="none">
                                    <path fill-rule="evenodd" clip-rule="evenodd" d="M50.5955 8.57072C50.118 8.95425 49.7189 9.41997 49.4097 9.9483C48.9596 10.0344 48.533 10.2223 48.1612 10.4962L48.1025 10.4101C48.3021 10.1127 48.4352 9.77611 48.4978 9.42388L48.5409 9.11079C49.0653 8.77422 49.5193 8.34373 49.8793 7.83496L50.5955 8.5668V8.57072Z" fill="#fff"></path>
                                    <path fill-rule="evenodd" clip-rule="evenodd" d="M58.204 0.140959L58.2157 0.129218C57.2803 -0.723947 53.9968 2.83351 51.8091 5.34213C51.0068 6.26574 50.2711 7.11891 49.9619 7.44373L51.0929 8.53954C52.1888 7.42417 59.4837 1.3033 58.204 0.140959ZM57.2451 1.5342L54.5878 4.26981L54.1612 4.3833L54.2669 3.95672L56.9242 1.22111C57.0729 1.0724 57.2647 1.0176 57.3508 1.10762C57.4212 1.17806 57.3938 1.38548 57.2451 1.5342Z" fill="#fff"></path>
                                    <path fill-rule="evenodd" clip-rule="evenodd" d="M31.8844 3.51434V27.9587H8.14844V1.08008H29.0079L31.8844 3.51434Z" fill="#92CADE"></path>
                                    <path fill-rule="evenodd" clip-rule="evenodd" d="M29.0078 1.08008L31.8843 3.51434H29.0078V1.08008Z" fill="#077599"></path>
                                    <path fill-rule="evenodd" clip-rule="evenodd" d="M36.1735 7.46746V31.9079H12.4219V5.0332H33.2892L36.1735 7.46746Z" fill="#1B87C5"></path>
                                    <path fill-rule="evenodd" clip-rule="evenodd" d="M40.4636 11.4196V35.8757H16.708V8.98145H37.5792L40.4636 11.4196Z" fill="#34B5C7"></path>
                                    <path d="M28.6794 30.2175C27.9202 30.7537 26.9144 30.785 26.1239 30.2958L17.917 23.2983C17.6509 23.0791 16.8212 22.3747 16.5786 22.5664C12.0858 26.5935 7.27989 30.1471 2.80273 34.1703C1.6717 34.8473 -0.398592 33.368 0.0671259 32.3661C4.99043 27.6932 10.039 24.2297 14.9819 19.5764C15.5689 18.9581 17.1696 18.3671 17.9758 19.1186L27.1884 27.2158L27.2314 27.2588C27.2784 27.3175 27.3606 27.3332 27.4232 27.2862C27.4349 27.2784 27.4427 27.2706 27.4506 27.2588C33.4306 22.0733 38.9409 16.563 44.9131 11.3657C46.1928 10.9235 47.4999 11.7336 47.3356 13.2051C41.1364 18.8916 34.9177 24.5702 28.6794 30.241V30.2253V30.2175Z" fill="#fff"></path>
                                    <path fill-rule="evenodd" clip-rule="evenodd" d="M33.2891 5.0332L36.1734 7.46746H33.2812L33.2891 5.0332Z" fill="#0F5E89"></path>
                                    <path fill-rule="evenodd" clip-rule="evenodd" d="M37.5791 8.98145L40.4634 11.4196H37.5713L37.5791 8.98145Z" fill="#0A7680"></path>
                                </svg>